<?xml version="1.0" encoding="iso-8859-1"?>
<!-- Uploaded to: SVG Repo, www.svgrepo.com, Generator: SVG Repo Mixer Tools -->
<!DOCTYPE svg PUBLIC "-//W3C//DTD SVG 1.1//EN" "http://www.w3.org/Graphics/SVG/1.1/DTD/svg11.dtd">
<svg fill="#000000" version="1.1" id="Capa_1" xmlns="http://www.w3.org/2000/svg" xmlns:xlink="http://www.w3.org/1999/xlink" 
	 width="800px" height="800px" viewBox="0 0 31.944 31.944"
	 xml:space="preserve">
<g>
	<path d="M27.055,0H14.786c-0.375,0-0.736,0.141-1.014,0.394L3.876,9.457c-0.311,0.285-0.487,0.687-0.487,1.106v19.881
		c0,0.827,0.673,1.5,1.5,1.5h22.166c0.828,0,1.5-0.673,1.5-1.5V1.5C28.555,0.672,27.883,0,27.055,0z M13.65,4.576v5.572H7.564
		L13.65,4.576z M25.555,28.945H6.389V13.148h8.761c0.828,0,1.5-0.672,1.5-1.5V3h8.904V28.945L25.555,28.945z M9.896,17.473h12.666v3
		H9.896V17.473z M9.896,22.807h12.666v3H9.896V22.807z"/>
</g>
</svg>